<svg width="23" height="23" viewBox="0 0 23 23" fill="none" xmlns="http://www.w3.org/2000/svg"><path d="M10.9444 2.01469H3.13463C2.54283 2.01469 1.97528 2.24978 1.55682 2.66824C1.13836 3.0867 0.903275 3.65425 0.903275 4.24604V19.8655C0.903275 20.4573 1.13836 21.0248 1.55682 21.4433C1.97528 21.8618 2.54283 22.0968 3.13463 22.0968H18.7541C19.3459 22.0968 19.9134 21.8618 20.3319 21.4433C20.7503 21.0248 20.9854 20.4573 20.9854 19.8655V12.0558" stroke="black" stroke-width="1.78982" stroke-linecap="round" stroke-linejoin="round"/><path d="M18.0563 1.59634C18.5001 1.1525 19.1021 0.903152 19.7298 0.903152C20.3575 0.903152 20.9595 1.1525 21.4033 1.59634C21.8471 2.04019 22.0965 2.64217 22.0965 3.26986C22.0965 3.89755 21.8471 4.49953 21.4033 4.94337L11.3477 15.0001C11.0828 15.2648 10.7555 15.4585 10.396 15.5635L7.19071 16.5007C7.0947 16.5287 6.99294 16.5303 6.89607 16.5055C6.79919 16.4807 6.71077 16.4303 6.64006 16.3596C6.56935 16.2889 6.51894 16.2004 6.49413 16.1036C6.46931 16.0067 6.47099 15.9049 6.49899 15.8089L7.43615 12.6036C7.54161 12.2444 7.73575 11.9175 8.00069 11.653L18.0563 1.59634Z" stroke="black" stroke-width="1.78982" stroke-linecap="round" stroke-linejoin="round"/></svg>