<svg width="39" height="39" viewBox="0 0 39 39" fill="none" xmlns="http://www.w3.org/2000/svg"><path d="M34.6667 0C35.8159 0 36.9181 0.456546 37.7308 1.2692C38.5435 2.08186 39 3.18406 39 4.33333V34.6667C39 35.8159 38.5435 36.9181 37.7308 37.7308C36.9181 38.5435 35.8159 39 34.6667 39H4.33333C3.18406 39 2.08186 38.5435 1.2692 37.7308C0.456546 36.9181 0 35.8159 0 34.6667V4.33333C0 3.18406 0.456546 2.08186 1.2692 1.2692C2.08186 0.456546 3.18406 0 4.33333 0H34.6667ZM33.5833 33.5833V22.1C33.5833 20.2267 32.8392 18.4301 31.5145 17.1055C30.1899 15.7808 28.3933 15.0367 26.52 15.0367C24.6783 15.0367 22.5333 16.1633 21.4933 17.8533V15.4483H15.4483V33.5833H21.4933V22.9017C21.4933 21.2333 22.8367 19.8683 24.505 19.8683C25.3095 19.8683 26.081 20.1879 26.6499 20.7568C27.2188 21.3256 27.5383 22.0972 27.5383 22.9017V33.5833H33.5833ZM8.40667 12.0467C9.37206 12.0467 10.2979 11.6632 10.9805 10.9805C11.6632 10.2979 12.0467 9.37206 12.0467 8.40667C12.0467 6.39167 10.4217 4.745 8.40667 4.745C7.43553 4.745 6.50417 5.13078 5.81748 5.81748C5.13078 6.50417 4.745 7.43553 4.745 8.40667C4.745 10.4217 6.39167 12.0467 8.40667 12.0467ZM11.4183 33.5833V15.4483H5.41667V33.5833H11.4183Z" fill="black"/></svg>