
<svg width="22" height="22" viewBox="0 0 22 22" fill="none" xmlns="http://www.w3.org/2000/svg"><path d="M17.6 17.6C18.1835 17.6 18.7431 17.8318 19.1556 18.2444C19.5682 18.6569 19.8 19.2165 19.8 19.8C19.8 20.3835 19.5682 20.9431 19.1556 21.3556C18.7431 21.7682 18.1835 22 17.6 22C17.0165 22 16.4569 21.7682 16.0444 21.3556C15.6318 20.9431 15.4 20.3835 15.4 19.8C15.4 18.579 16.379 17.6 17.6 17.6ZM0 0H3.597L4.631 2.2H20.9C21.1917 2.2 21.4715 2.31589 21.6778 2.52218C21.8841 2.72847 22 3.00826 22 3.3C22 3.487 21.945 3.674 21.868 3.85L17.93 10.967C17.556 11.638 16.83 12.1 16.005 12.1H7.81L6.82 13.893L6.787 14.025C6.787 14.0979 6.81597 14.1679 6.86755 14.2195C6.91912 14.271 6.98907 14.3 7.062 14.3H19.8V16.5H6.6C6.01652 16.5 5.45694 16.2682 5.04436 15.8556C4.63178 15.4431 4.4 14.8835 4.4 14.3C4.4 13.915 4.499 13.552 4.664 13.244L6.16 10.549L2.2 2.2H0V0ZM6.6 17.6C7.18348 17.6 7.74305 17.8318 8.15563 18.2444C8.56821 18.6569 8.8 19.2165 8.8 19.8C8.8 20.3835 8.56821 20.9431 8.15563 21.3556C7.74305 21.7682 7.18348 22 6.6 22C6.01652 22 5.45694 21.7682 5.04436 21.3556C4.63178 20.9431 4.4 20.3835 4.4 19.8C4.4 18.579 5.379 17.6 6.6 17.6ZM16.5 9.9L19.558 4.4H5.654L8.25 9.9H16.5Z" fill="black"/></svg>