<svg width="86" height="59" viewBox="0 0 86 59" fill="none" xmlns="http://www.w3.org/2000/svg"><path d="M57.3871 35.3459C57.3871 34.5592 56.9033 34.1266 56.1544 33.8168C55.4019 33.5218 54.4917 33.485 53.2519 33.485H47.7228V40.4175H50.1416V37.8927H52.7216C53.5816 37.8927 54.1191 37.9517 54.4344 38.2C54.8644 38.5196 54.8071 39.1342 54.8071 39.5521V40.4125H57.1721V39.0482C57.1649 38.4336 57.1112 38.1238 56.7851 37.7797C56.4752 37.5172 56.0661 37.3182 55.6026 37.2044L55.6742 37.1847C56.1991 37.035 56.645 36.779 56.9523 36.4509C57.2596 36.1227 57.4138 35.7381 57.3942 35.3484L57.3871 35.3459ZM54.2696 36.3465L54.1692 36.3415C53.8467 36.4718 53.4705 36.4841 52.9867 36.4841H50.0843V34.9354H53.0369C53.4669 34.9354 53.8969 34.9354 54.2194 35.0583C54.3882 35.1156 54.529 35.2054 54.6245 35.3167C54.7199 35.4281 54.766 35.5561 54.7569 35.6852C54.7569 35.9802 54.5957 36.2137 54.2767 36.3489L54.2696 36.3465ZM72.7309 38.9326H68.0833V40.4076H72.756C75.1783 40.4076 76.5185 39.7242 76.5185 38.2345C76.5185 37.5461 76.282 37.1331 75.8484 36.8037C75.3002 36.4767 74.4437 36.3293 73.2326 36.2948L71.8853 36.258C71.5126 36.258 71.2402 36.258 70.9715 36.1842C70.8109 36.1515 70.6709 36.0829 70.5735 35.9894C70.4762 35.8959 70.4271 35.7828 70.434 35.668C70.434 35.4467 70.4949 35.2599 70.7565 35.1517C71.0545 35.0402 71.3925 34.989 71.7312 35.0042H76.1387V33.5243H71.3012C68.7785 33.5243 67.8683 34.5986 67.8683 35.5893C67.8683 37.8018 70.649 37.6912 72.9101 37.728C73.2827 37.728 73.5551 37.7649 73.7163 37.8755C73.8812 37.9493 74.0102 38.1361 74.0102 38.318C74.0102 38.5073 73.8847 38.6868 73.7235 38.7605C73.5085 38.8908 73.186 38.9326 72.7309 38.9326ZM0 0V24.8193L2.9025 20.2075H9.17333L9.97958 21.3482V20.2075H17.3003L18.9128 22.715L20.4788 20.2247H43.7776C44.8347 20.2247 45.7842 20.3648 46.4866 20.8049V20.2395H52.89V20.8049C53.9901 20.387 55.3482 20.2395 56.9033 20.2395H66.2415L67.1015 21.385V20.2395H73.9743L74.8845 21.3826V20.237H81.5423V29.9425H74.7842L73.4942 28.4675V29.9056H65.0626L64.1452 28.3569H62.0562L61.0887 29.8663H56.7421C55.0221 29.8663 53.7321 29.6106 52.8721 29.2763V29.8663H42.5162V27.6931C42.5162 27.3981 42.4087 27.3981 42.14 27.3612H41.7637V29.9081H21.7401V28.7281L20.9876 29.9081H16.8058L16.082 28.7281V29.8712H8.00875L7.09142 28.3372H5.01667L4.09933 29.8712H0V59H85.2332V41.5262C84.2657 41.858 83.0366 41.9687 81.7466 41.9687H75.5725V41.3418C74.82 41.7474 73.53 41.9687 72.2973 41.9687H52.7108V39.7562C52.7108 39.4612 52.6463 39.4612 52.2808 39.4612H52.0121V41.9736H45.5621V39.353C44.4943 39.6873 43.258 39.7217 42.2367 39.6873H41.4699V41.9367H33.6582L31.7232 40.4199L29.6807 41.8949H16.9922V32.2337H29.928L31.7842 33.7136L33.7693 32.2386H42.4123C43.4157 32.2386 45.064 32.3123 45.7878 32.7917V32.2017H53.5887C54.3126 32.2017 55.8964 32.3123 56.8245 32.7548V32.1648H68.5241V32.7548C69.1082 32.3517 70.3444 32.1648 71.4015 32.1648H78.174V32.7548C78.8692 32.3861 79.8367 32.1648 81.184 32.1648H85.398V0H0ZM75.809 36.7644L75.8484 36.8037C75.8842 36.8283 75.9308 36.8283 75.9595 36.8529L75.809 36.7644ZM85.3837 32.1599H85.6166V33.5243H85.3837V32.1599ZM85.5163 36.9487V36.9365C85.4087 36.875 85.3514 36.8185 85.2475 36.7644C84.71 36.3882 83.85 36.2358 82.5098 36.2112L81.2198 36.1818C80.8938 36.1909 80.5675 36.166 80.2523 36.108C80.0918 36.0753 79.9517 36.0067 79.8543 35.9132C79.757 35.8197 79.7079 35.7066 79.7148 35.5917C79.7148 35.3689 79.8223 35.2017 80.0373 35.0902C80.3097 34.9796 80.5748 34.9673 81.0048 34.9673H85.3873V33.5218H80.7898C78.3173 33.5218 77.3498 34.5961 77.3498 35.5868C77.3498 37.7993 80.1448 37.6887 82.4023 37.7256C82.775 37.7256 83.0473 37.7625 83.205 37.8731C83.3698 37.9468 83.4773 38.1337 83.4773 38.3156C83.4773 38.4877 83.3555 38.6548 83.1548 38.7581C82.9936 38.8957 82.6675 38.9302 82.1873 38.9302H77.572V40.4175H82.1837C83.6887 40.4175 84.8139 40.1274 85.4087 39.5325H85.5163C85.8387 39.203 86 38.795 86 38.2467C86 37.6567 85.8387 37.288 85.5163 36.9537V36.9487ZM66.6393 34.928V33.4948H58.6305V40.4592H66.6393V39.0211H61.0134V37.6199H66.5067V36.1842H61.017V34.9305M48.4108 21.6014H50.8654V28.5167H48.4144L48.4108 21.6014ZM47.0348 23.4599L47.0098 23.4746C47.0098 22.7027 46.5439 22.2455 45.7914 21.9406C45.0138 21.6333 44.1073 21.6087 42.8889 21.6087H37.3742V28.5412H39.7893V25.9993H42.3693C43.2293 25.9993 43.7668 26.0731 44.1144 26.2943C44.5516 26.6287 44.4978 27.2236 44.4978 27.6415V28.5117H46.9237V27.1523C46.9237 26.5377 46.8664 26.2304 46.5296 25.8838C46.2151 25.623 45.8078 25.4223 45.3471 25.3012C45.9634 25.1291 47.0384 24.5637 47.0384 23.4574L47.0348 23.4599ZM43.9711 24.4334H43.9173C43.5948 24.5661 43.2186 24.571 42.7348 24.571H39.775V23.0395H42.7313C43.1613 23.0395 43.5912 23.0493 43.9137 23.1624C44.2362 23.2607 44.4512 23.4771 44.4512 23.777C44.4512 24.0769 44.2828 24.3178 43.9711 24.4309V24.4334ZM57.0467 23.042H59.3113V21.567H57.0037C55.341 21.567 54.1227 21.8251 53.3487 22.3782C52.3238 23.1157 52.0515 24.0745 52.0515 25.107C52.0515 26.3656 52.4922 27.1547 53.3415 27.7472C54.1728 28.3323 55.6527 28.5093 56.8173 28.5093H59.6123L60.5261 26.9679H65.5069L66.4457 28.5093H71.3191V23.3222L75.8771 28.5093H79.2812L79.2884 28.5142V21.5989H76.8374V26.4246L72.6091 21.6063H68.9541V28.025L64.8942 21.4957H61.2965L57.9174 26.9532H56.8424C56.2082 26.9532 55.5452 26.8794 55.1654 26.6237C54.7175 26.255 54.4989 25.7388 54.4989 24.9963C54.4989 24.2957 54.7856 23.7426 55.1941 23.4476C55.6707 23.1157 56.1687 23.042 57.0431 23.042H57.0467ZM63.0237 22.7765L64.6863 25.5249V25.5298H61.3538L63.0237 22.7765ZM8.52833 26.9679L9.4385 28.5117H14.3333V23.0911L17.8163 28.5117H19.909L23.3956 23.0985L23.4493 28.5117H25.9218V21.6038H21.9228L19.0311 26.2845L15.8921 21.6014H11.9791V28.1479L7.90125 21.6014H4.32867L0.0358333 28.5093H2.61583L3.5475 26.9704L8.52833 26.9679ZM6.063 22.7765L7.71133 25.5249L7.70058 25.5298H4.42183L6.05942 22.7765H6.063ZM42.484 33.4825H34.8085L31.7627 35.7515L28.8064 33.485H19.1565V40.4175H28.6667L31.7304 38.1263L34.6831 40.4125H39.3486V38.1017H42.3514C44.5014 38.1017 46.5439 37.6985 46.5439 35.7786L46.5224 35.7712C46.5224 33.8537 44.3796 33.485 42.4804 33.485L42.484 33.4825ZM27.4842 38.972L27.434 38.967H21.5717V37.5977H26.8392V36.1867H21.5717V34.9329H27.5917L30.2182 36.9487L27.4806 38.9744L27.4842 38.972ZM36.9513 39.7832L33.2605 36.9635L36.9513 34.2397V39.7783V39.7832ZM42.5162 36.6906H39.345V34.928H42.5162C43.3762 34.928 44.0212 35.1689 44.0212 35.7737C44.0212 36.371 43.4837 36.6882 42.5162 36.6882V36.6906ZM35.7151 23.042V21.6014H27.6992V28.5167H35.7151V27.0908H30.1V25.7043H35.5718V24.2883H30.1V23.042" fill="black"/></svg>