<svg width="95" height="56" viewBox="0 0 95 56" fill="none" xmlns="http://www.w3.org/2000/svg"><path d="M66.88 7.74528e-05C74.3379 7.74528e-05 81.4903 2.95006 86.7638 8.20107C92.0374 13.4521 95 20.574 95 28C95 35.426 92.0374 42.5479 86.7638 47.7989C81.4903 53.0499 74.3379 55.9999 66.88 55.9999C60.4222 56.014 54.1604 53.7919 49.1672 49.7141C52.9179 46.1274 55.6818 41.6426 57.1948 36.6885H54.8577C53.4028 41.0993 50.8657 45.0789 47.4763 48.2668C44.1078 45.077 41.5891 41.103 40.147 36.7027H37.81C39.3036 41.636 42.0373 46.108 45.752 49.6952C40.7789 53.7554 34.551 55.9823 28.12 55.9999C20.6621 55.9999 13.5097 53.0499 8.23616 47.7989C2.96264 42.5479 0 35.426 0 28C0 20.574 2.96264 13.4521 8.23616 8.20107C13.5097 2.95006 20.6621 7.74528e-05 28.12 7.74528e-05C34.8175 7.74528e-05 40.9212 2.41223 45.752 6.30479C42.0373 9.89199 39.3036 14.364 37.81 19.2973H40.147C41.5891 14.897 44.1078 10.923 47.4763 7.73317C50.8657 10.9211 53.4028 14.9007 54.8577 19.3115H57.1948C55.6818 14.3574 52.9179 9.87262 49.1672 6.28587C54.1617 2.20708 60.4254 -0.0151217 66.8848 7.74528e-05M76.2803 24.1973L74.3375 34.5554H77.197L78.0758 29.8162C78.8737 26.8743 80.104 26.8838 80.826 26.898H80.9353L81.7048 24.202C80.275 24.202 79.4295 24.7081 78.9925 25.2189L78.736 24.1973H76.2803ZM39.5438 21.5676H36.7127L34.7557 31.3912C34.2095 34.2054 36.3518 34.6074 37.0025 34.6074C37.7375 34.6312 38.4651 34.4545 39.1068 34.0966L39.2873 32.0061C37.658 32.2567 37.582 31.5331 37.7293 30.7385L38.5273 26.548H39.976L40.4843 24.3108H38.9643L39.5438 21.5676ZM45.0918 24.1689C40.66 24.1689 39.9808 28.4115 39.8477 29.2628L39.8335 29.3291C39.7242 29.9818 39.653 34.5696 44.5502 34.5696C45.7472 34.6027 47.4857 34.4608 48.1792 34.0966L48.6115 31.9682C47.5565 32.1411 46.4887 32.2249 45.4195 32.2189H45.3245C44.194 32.2189 42.4935 32.2236 42.807 29.9486H48.9725C49.305 28.2838 50.065 24.1689 45.0918 24.1689ZM34.6845 24.5237C33.5113 24.0791 32.5613 24.1074 32.072 24.1216H31.8678C31.388 24.1216 28.082 24.1216 27.569 26.5811C27.17 28.4966 27.873 29.2865 28.5475 29.5797C29.26 29.8872 29.7683 30.1757 30.2005 30.4216C30.4222 30.5541 30.6343 30.6707 30.837 30.7716C31.5495 31.1263 31.4213 32.323 30.4713 32.323L30.1292 32.3372C29.3977 32.3797 27.9062 32.4601 26.7378 32.0723L26.3388 34.2007C27.645 34.5648 28.6948 34.5648 29.6733 34.5648H29.7825C30.6612 34.5743 33.7582 34.6027 34.2048 31.6372C34.4375 30.1236 33.7725 29.4331 33.2263 29.1115C32.578 28.6899 31.9002 28.3153 31.198 27.9905C30.6185 27.7351 30.1815 26.7608 31.2313 26.477C31.8868 26.4014 33.2262 26.4014 34.0243 26.6189L34.6845 24.5237ZM18.0357 22.0642H13.3903L9.9465 29.6507L9.40025 22.0642H4.86875L2.43675 34.5648H5.26775L7.00625 25.5311L7.76625 34.5648H10.4548L14.4067 25.7487L12.7395 34.5648H15.6703L18.0357 22.0642ZM18.3588 26.7277L19.0428 26.6426C19.8978 26.5338 21.1375 26.373 21.8785 26.4014L22.1635 26.4061C23.0518 26.425 23.9163 26.4439 23.6217 27.8439C23.5236 27.8502 23.3653 27.8502 23.1468 27.8439C21.66 27.7966 17.7128 27.6784 17.0193 31.4574C16.6915 33.5858 18.5393 34.6736 19.9928 34.598C21.4415 34.527 21.8452 34.3473 22.3487 33.9831L22.7145 34.5648H25.3603L26.486 28.927C26.7758 27.5223 27.246 24.1264 22.496 24.1264L22.04 24.1406C21.2705 24.1595 20.33 24.1879 18.7958 24.4858L18.3588 26.7277ZM62.4673 24.4527C63.4125 24.4527 63.916 24.5237 64.6427 24.9541L66.4953 23.1142C65.7685 22.3196 64.9325 21.5392 62.6145 21.4541C60.6527 21.3784 57.2945 22.802 56.2305 26.6899C54.777 31.9635 57.969 34.5648 60.9092 34.5648C62.4673 34.5648 63.4125 34.3473 64.353 33.9122L63.517 31.3865C60.6195 32.3608 58.5485 30.8804 59.0235 27.8818C59.4178 25.3466 61.522 24.448 62.4673 24.448M88.3643 25.0108C87.9843 24.6135 87.5473 24.1595 86.5498 24.1595H86.2933C84.7353 24.1406 82.4885 24.1169 81.1823 28.5628C80.2607 31.6986 82.1275 34.5601 84.1558 34.5601C85.101 34.5223 86.0415 34.125 86.6258 33.7277L86.9867 34.5601H90.0315L92.5015 21.4115H89.5233L88.7633 25.3845C88.623 25.2661 88.4898 25.1398 88.3643 25.0061M66.2387 26.7183L66.9228 26.6331C67.7778 26.5243 69.0128 26.3635 69.7585 26.3919L70.0435 26.3966C70.9318 26.4155 71.7962 26.4345 71.497 27.8345C71.402 27.8408 71.2437 27.8408 71.022 27.8345C69.54 27.7872 65.5928 27.6689 64.8945 31.448C64.5715 33.5763 66.4193 34.6642 67.8728 34.5885C69.3215 34.5176 69.7205 34.3378 70.2288 33.9736L70.5945 34.5554H73.2402L74.366 28.9176C74.651 27.5128 75.126 24.1169 70.376 24.1169L69.92 24.1311C69.1505 24.15 68.21 24.1784 66.6758 24.4764L66.2387 26.7183ZM50.977 24.2966L49.0532 34.5554H51.8843L52.7535 29.8588C53.5373 26.9737 54.777 26.9926 55.4895 27.002H55.6177L56.3445 24.2966C54.9337 24.2966 54.0978 24.8027 53.6608 25.3088L53.409 24.2966H50.977Z" fill="black"/></svg>