<svg width="27" height="38" viewBox="0 0 27 38" fill="none" xmlns="http://www.w3.org/2000/svg"><path d="M13.5 0C8.84756 0 5.0625 4.2617 5.0625 9.5V15.2H3.375C2.47989 15.2 1.62145 15.6004 0.988514 16.313C0.355579 17.0256 0 17.9922 0 19V34.2C0 35.2078 0.355579 36.1744 0.988514 36.887C1.62145 37.5996 2.47989 38 3.375 38H23.625C24.5201 38 25.3785 37.5996 26.0115 36.887C26.6444 36.1744 27 35.2078 27 34.2V19C27 17.9922 26.6444 17.0256 26.0115 16.313C25.3785 15.6004 24.5201 15.2 23.625 15.2H21.9375V9.5C21.9375 4.2617 18.1524 0 13.5 0ZM8.4375 9.5C8.4375 6.3574 10.7089 3.8 13.5 3.8C16.2911 3.8 18.5625 6.3574 18.5625 9.5V15.2H8.4375V9.5ZM15.1875 29.8737V34.2H11.8125V29.8737C11.2225 29.4933 10.7488 28.9205 10.4538 28.2309C10.1588 27.5412 10.0563 26.7671 10.1599 26.0106C10.2635 25.254 10.5683 24.5506 11.0342 23.9931C11.5 23.4355 12.105 23.05 12.7693 22.8874C13.2628 22.7642 13.7746 22.7673 14.2668 22.8967C14.7591 23.026 15.2192 23.2781 15.6134 23.6345C16.0075 23.9909 16.3254 24.4424 16.5438 24.9556C16.7622 25.4689 16.8754 26.0309 16.875 26.6C16.874 27.2645 16.7175 27.917 16.4213 28.4917C16.125 29.0664 15.6995 29.5431 15.1875 29.8737Z" fill="#FF6E09"/></svg>