<svg width="84" height="56" viewBox="0 0 84 56" fill="none" xmlns="http://www.w3.org/2000/svg"><path d="M78.4 56H5.6C4.11479 56 2.69041 55.41 1.6402 54.3598C0.589998 53.3096 0 51.8852 0 50.4L0 5.6C0 4.11479 0.589998 2.69041 1.6402 1.6402C2.69041 0.589998 4.11479 0 5.6 0L78.4 0C79.8852 0 81.3096 0.589998 82.3598 1.6402C83.41 2.69041 84 4.11479 84 5.6V50.4C84 51.8852 83.41 53.3096 82.3598 54.3598C81.3096 55.41 79.8852 56 78.4 56ZM32.7413 24.0917C32.6773 24.0918 32.6142 24.1066 32.5567 24.135C32.4993 24.1633 32.4491 24.2043 32.41 24.255C32.3181 24.3486 32.2655 24.4738 32.263 24.605C32.263 24.654 32.4917 25.3517 32.9817 26.782L34.041 29.876L34.5333 31.318C35.0856 32.9358 35.3741 33.796 35.399 33.8987C34.313 35.2438 33.3309 36.6697 32.4613 38.164L32.3727 38.3273L32.368 38.3857C32.368 38.619 32.557 38.8103 32.7927 38.8103L32.8557 38.8057H32.8533H35.6953C35.8276 38.8038 35.9573 38.7689 36.0726 38.7041C36.188 38.6393 36.2853 38.5467 36.3557 38.4347L36.358 38.4323L45.766 24.8547C45.8158 24.7897 45.8428 24.7102 45.843 24.6283L45.8407 24.5933V24.5957C45.8382 24.4645 45.7856 24.3393 45.6937 24.2457C45.6548 24.1953 45.605 24.1544 45.548 24.1261C45.491 24.0978 45.4283 24.0829 45.3647 24.0823H42.5203C42.3877 24.0838 42.2575 24.1186 42.1417 24.1834C42.026 24.2482 41.9283 24.341 41.8577 24.4533L41.8553 24.4557L37.9353 30.2097L36.3137 24.675C36.2721 24.5063 36.1753 24.3564 36.0388 24.2491C35.9022 24.1417 35.7337 24.083 35.56 24.0823L35.4993 24.0847H35.5017L32.7413 24.0917ZM65.3567 23.8327H65.296C63.5273 23.8327 61.9383 24.6003 60.8417 25.8183L60.837 25.823C59.6384 27.064 58.9691 28.7223 58.9703 30.4477V30.5107V30.5083C58.9672 30.5783 58.9657 30.6546 58.9657 30.737C58.9657 31.99 59.4533 33.131 60.2467 33.978L60.2443 33.9757C60.6954 34.4154 61.2326 34.7573 61.822 34.9797C62.4114 35.2022 63.0405 35.3004 63.6697 35.2683H63.658C64.4443 35.259 65.191 35.098 65.8723 34.8087L65.835 34.8227C66.5233 34.5637 67.1067 34.16 67.5663 33.6467L67.571 33.642C67.5477 33.7727 67.5212 33.8901 67.4917 33.9943L67.4963 33.971C67.4575 34.1145 67.4325 34.2614 67.4217 34.4097V34.4143C67.4217 34.8063 67.5819 35.0031 67.9023 35.0047H70.448C70.5474 35.0136 70.6476 35.0025 70.7426 34.972C70.8377 34.9416 70.9256 34.8924 71.0013 34.8273C71.077 34.7623 71.1389 34.6827 71.1834 34.5934C71.2278 34.504 71.2539 34.4066 71.26 34.307V34.3047L72.772 24.675C72.7861 24.6023 72.7835 24.5274 72.7646 24.4559C72.7456 24.3844 72.7106 24.3181 72.6623 24.262C72.6196 24.205 72.5643 24.1585 72.5008 24.1261C72.4373 24.0938 72.3673 24.0764 72.296 24.0753H69.489C69.146 24.0753 68.929 24.4837 68.859 25.2933C68.4481 24.7665 67.9079 24.3549 67.291 24.0986C66.674 23.8422 66.0012 23.7498 65.338 23.8303L65.3567 23.828V23.8327ZM23.443 23.8327H23.3777C21.6113 23.8327 20.0223 24.6003 18.9303 25.8183L18.9257 25.823C17.7271 27.064 17.0577 28.7223 17.059 30.4477V30.5107V30.5083C17.0275 31.1426 17.1246 31.7767 17.3443 32.3725C17.5641 32.9684 17.9019 33.5137 18.3377 33.9757L18.3353 33.9733C19.1613 34.776 20.2907 35.2707 21.5367 35.2707L21.7607 35.266H21.749C22.5237 35.2543 23.2587 35.0933 23.9283 34.8063L23.891 34.8203C24.5887 34.5543 25.1813 34.153 25.6597 33.642L25.662 33.6397C25.5757 33.8683 25.522 34.1343 25.515 34.4097V34.4143C25.5166 34.8063 25.6768 35.0031 25.9957 35.0047H28.539C28.6384 35.0136 28.7386 35.0025 28.8336 34.972C28.9287 34.9416 29.0166 34.8924 29.0923 34.8273C29.168 34.7623 29.2299 34.6827 29.2744 34.5934C29.3188 34.504 29.3449 34.4066 29.351 34.307V34.3047L30.8653 24.675C30.8784 24.6029 30.8751 24.5288 30.8557 24.4581C30.8363 24.3874 30.8013 24.322 30.7533 24.2667C30.7106 24.2096 30.6553 24.1632 30.5918 24.1308C30.5283 24.0985 30.4583 24.0811 30.387 24.08H27.58C27.237 24.08 27.02 24.4883 26.9523 25.298C26.537 24.7756 25.9959 24.3671 25.3797 24.1108C24.7635 23.8545 24.0923 23.7588 23.429 23.8327L23.4477 23.8303L23.443 23.8327ZM76.0947 18.6667L76.0573 18.6643C75.9459 18.6639 75.8385 18.7055 75.7563 18.7807C75.6742 18.8559 75.6234 18.9593 75.614 19.0703L73.2153 34.4213C73.1956 34.4952 73.1954 34.5729 73.2146 34.6469C73.2338 34.7209 73.2719 34.7887 73.325 34.8437C73.3691 34.8959 73.4241 34.9378 73.4862 34.9665C73.5483 34.9951 73.616 35.0097 73.6843 35.0093H76.1343L76.209 35.014C76.3946 35.014 76.5727 34.9403 76.704 34.809C76.8352 34.6777 76.909 34.4997 76.909 34.314V34.3093L79.303 19.2243L79.3053 19.173C79.3057 19.0399 79.2622 18.9103 79.1817 18.8043V18.8067C79.0959 18.7179 78.9784 18.6667 78.855 18.6643L78.82 18.6667H76.0947ZM48.8647 18.6667C48.7646 18.6543 48.6631 18.6629 48.5666 18.6921C48.4701 18.7212 48.3808 18.7702 48.3043 18.8359C48.2279 18.9016 48.166 18.9825 48.1227 19.0735C48.0793 19.1645 48.0555 19.2636 48.0527 19.3643L45.6563 34.419C45.6433 34.4906 45.6464 34.5641 45.6654 34.6344C45.6844 34.7046 45.7187 34.7697 45.766 34.825C45.8072 34.8831 45.8618 34.9303 45.9252 34.9628C45.9885 34.9953 46.0588 35.0121 46.13 35.0117H49.175C49.312 35.0129 49.4451 34.9659 49.5509 34.8789C49.6567 34.7918 49.7285 34.6703 49.7537 34.5357V34.531L50.4187 30.2517C50.4277 30.1587 50.4553 30.0685 50.4998 29.9863C50.5443 29.9042 50.6048 29.8317 50.6777 29.7733C50.8378 29.6461 51.0308 29.5633 51.233 29.533H51.24C51.429 29.498 51.646 29.4793 51.8677 29.477C52.0637 29.477 52.2993 29.4894 52.57 29.5143C52.8658 29.5488 53.1635 29.5644 53.4613 29.561C55.1709 29.5638 56.8181 28.9194 58.072 27.7573L58.0673 27.762C58.6926 27.099 59.1754 26.3149 59.486 25.4581C59.7966 24.6013 59.9284 23.69 59.8733 22.7803V22.799C59.9235 22.1974 59.8204 21.5929 59.5735 21.042C59.3266 20.4912 58.9441 20.0119 58.4617 19.649L58.4523 19.642C57.3389 18.9379 56.0346 18.5963 54.719 18.6643H54.733L48.8647 18.6667ZM6.90667 18.6667C6.80906 18.6562 6.71034 18.6664 6.61692 18.6965C6.5235 18.7267 6.43747 18.7762 6.36442 18.8417C6.29136 18.9073 6.23292 18.9875 6.19288 19.0772C6.15284 19.1668 6.13209 19.2638 6.132 19.362V19.3667L3.73333 34.4213C3.72033 34.4929 3.72343 34.5665 3.74239 34.6367C3.76136 34.7069 3.79573 34.772 3.843 34.8273C3.88422 34.8854 3.93882 34.9327 4.00218 34.9652C4.06554 34.9977 4.1358 35.0144 4.207 35.014H7.01633C7.11637 35.0264 7.21789 35.0177 7.31438 34.9886C7.41088 34.9595 7.50022 34.9105 7.57667 34.8448C7.65312 34.7791 7.715 34.6982 7.75834 34.6072C7.80168 34.5162 7.82552 34.4171 7.82833 34.3163L8.49333 30.2587C8.50211 30.1659 8.52934 30.0757 8.57341 29.9936C8.61749 29.9115 8.67752 29.839 8.75 29.7803C8.91009 29.6531 9.10312 29.5703 9.30533 29.54H9.31233C9.51884 29.5038 9.72802 29.4851 9.93767 29.484H9.94C10.136 29.484 10.3693 29.4964 10.64 29.5213C10.935 29.5557 11.232 29.5713 11.529 29.568C13.3093 29.568 14.9287 28.8843 16.142 27.7643L16.1373 27.769C16.7626 27.106 17.2454 26.3219 17.556 25.4651C17.8666 24.6083 17.9984 23.697 17.9433 22.7873V22.806C17.9935 22.2044 17.8904 21.5999 17.6435 21.049C17.3966 20.4982 17.0141 20.0189 16.5317 19.656L16.5223 19.649C15.4138 18.9474 14.1157 18.6051 12.8053 18.669H12.8193L6.90667 18.6667ZM65.2027 32.2817L65.0907 32.284C64.4945 32.2846 63.9174 32.0737 63.462 31.689L63.4667 31.6913C63.2575 31.4962 63.0905 31.2604 62.9757 30.9984C62.861 30.7364 62.8009 30.4537 62.7993 30.1677L62.8017 30.0627V29.9997C62.8017 29.127 63.154 28.336 63.7257 27.762C64.288 27.1857 65.072 26.8287 65.94 26.8287H66.017H66.0123L66.0917 26.8263C66.7193 26.8263 67.291 27.0573 67.7297 27.4377L67.7273 27.4353C67.9437 27.6362 68.1162 27.8796 68.2343 28.1501C68.3523 28.4207 68.4133 28.7128 68.4133 29.008L68.411 29.12V29.1153V29.1713C68.411 30.0323 68.054 30.8117 67.4777 31.3647C67.1866 31.6548 66.8413 31.8847 66.4613 32.0412C66.0814 32.1978 65.6743 32.2779 65.2633 32.277H65.205L65.2027 32.2817ZM23.2517 32.2817L23.135 32.284C22.5237 32.284 21.9613 32.06 21.532 31.689L21.5343 31.6913C21.3292 31.4951 21.1659 31.2594 21.0544 30.9983C20.9429 30.7372 20.8855 30.4562 20.8857 30.1723L20.888 30.0627V29.9997C20.888 29.127 21.2403 28.336 21.812 27.762C22.3743 27.1857 23.156 26.8287 24.024 26.8287H24.1057H24.101L24.1803 26.8263C24.808 26.8263 25.3797 27.0573 25.8183 27.4377L25.816 27.4353C26.0316 27.6361 26.2036 27.8792 26.3212 28.1494C26.4388 28.4195 26.4996 28.711 26.4997 29.0057L26.4973 29.12V29.1153V29.197C26.4973 30.058 26.1403 30.8327 25.564 31.3857C24.9665 31.9621 24.1682 32.2834 23.338 32.2817H23.2517ZM51.0347 26.3083L51.6623 22.3627C51.6673 22.3046 51.6837 22.248 51.7106 22.1963C51.7375 22.1446 51.7743 22.0986 51.8189 22.0611C51.8636 22.0236 51.9152 21.9953 51.9708 21.9778C52.0264 21.9603 52.0849 21.9539 52.143 21.959H52.8057L52.948 21.9567C53.3524 21.9567 53.7499 21.9839 54.1403 22.0383L54.096 22.0337C54.4577 22.099 54.7727 22.2623 55.02 22.4957C55.1621 22.628 55.275 22.7885 55.3518 22.9668C55.4285 23.1452 55.4673 23.3375 55.4657 23.5317L55.4633 23.6203V23.6157C55.5128 24.0055 55.4649 24.4015 55.3241 24.7684C55.1832 25.1352 54.9537 25.4615 54.656 25.718L54.6537 25.7203C53.9101 26.1445 53.0577 26.3394 52.2037 26.2803H52.2177L51.0393 26.3177L51.0347 26.3083ZM9.08367 26.3083L9.71133 22.3627C9.71632 22.3046 9.73272 22.248 9.7596 22.1963C9.78647 22.1446 9.82328 22.0986 9.86793 22.0611C9.91258 22.0236 9.96418 21.9953 10.0198 21.9778C10.0754 21.9603 10.1339 21.9539 10.192 21.959H10.8897C11.6367 21.9049 12.3844 22.0549 13.0527 22.393L13.0293 22.3813C13.4711 22.666 13.6189 23.2618 13.4727 24.1687C13.4622 24.5068 13.3701 24.8375 13.2044 25.1324C13.0386 25.4273 12.8041 25.6779 12.5207 25.8627L12.5137 25.8673C11.4082 26.2767 10.2236 26.4268 9.051 26.306L9.08367 26.3083Z" fill="black"/></svg>