<svg width="78" height="56" viewBox="0 0 78 56" fill="none" xmlns="http://www.w3.org/2000/svg"><path d="M72.8 56H5.2C3.82087 56 2.49823 55.41 1.52304 54.3598C0.547856 53.3096 0 51.8852 0 50.4L0 5.6C0 4.11479 0.547856 2.69041 1.52304 1.6402C2.49823 0.589998 3.82087 0 5.2 0L72.8 0C74.1791 0 75.5018 0.589998 76.477 1.6402C77.4521 2.69041 78 4.11479 78 5.6V50.4C78 51.8852 77.4521 53.3096 76.477 54.3598C75.5018 55.41 74.1791 56 72.8 56ZM38.6533 34.4447L37.8755 39.6947C39.8626 40.5985 42.0098 41.0215 44.1653 40.9337H44.1415C46.6672 41.0918 49.1682 40.3245 51.2373 38.7567L51.2005 38.7823C52.0446 38.1131 52.731 37.2398 53.2044 36.2327C53.6778 35.2255 53.925 34.1128 53.9262 32.984V32.949C53.9262 30.3823 52.3315 28.252 49.1877 26.6047C48.33 26.1584 47.5095 25.6338 46.735 25.0367L46.7848 25.074C46.5681 24.9237 46.3877 24.7201 46.2585 24.4799C46.1292 24.2397 46.0549 23.9699 46.0417 23.6927V23.688C46.0587 23.3992 46.1428 23.1197 46.2862 22.8751C46.4297 22.6304 46.628 22.4286 46.8628 22.288L46.8715 22.2833C47.5986 21.831 48.4344 21.6222 49.2722 21.6837H49.2592H49.4325L49.5993 21.6813C50.9947 21.6813 52.3185 22.0057 53.5123 22.5867L53.4517 22.561L53.9587 22.8527L54.7365 17.787C53.164 17.128 51.4903 16.794 49.803 16.8023H49.6968H49.7033C47.2621 16.6878 44.8552 17.453 42.8632 18.977L42.8978 18.9513C42.0697 19.5803 41.394 20.4143 40.9276 21.3832C40.4612 22.352 40.2177 23.4274 40.2177 24.5187V24.5303C40.196 26.999 41.847 29.1317 45.1273 30.877C45.994 31.2853 46.7415 31.7847 47.411 32.3843L47.3958 32.3703C47.5886 32.5458 47.7453 32.7626 47.8561 33.0068C47.9669 33.251 48.0293 33.5174 48.0393 33.789V33.7983C48.0393 34.5427 47.6277 35.182 47.034 35.469L47.0232 35.4737C46.3732 35.8423 45.6018 36.057 44.7828 36.057H44.6832H44.6875H44.525C42.6682 36.057 40.9088 35.6137 39.3315 34.8203L39.4073 34.8553L38.6642 34.454L38.6533 34.4447ZM60.5908 37.107H67.7733C67.8889 37.6406 68.1149 38.8072 68.4515 40.607H73.6667L69.1297 17.2013H64.7963C64.1766 17.1407 63.5553 17.2977 63.0254 17.6489C62.4954 18.0001 62.0852 18.5266 61.8562 19.1497L61.8497 19.1707L53.5297 40.607H59.423L60.606 37.1093L60.5908 37.107ZM32.2638 17.2013L28.7408 40.607H34.3612L37.882 17.2013H32.2638ZM10.6643 21.9777L15.236 40.5697H21.1597L29.9888 17.2013H24.0392L18.5488 33.1707L17.9725 29.925L16.0138 19.1707C15.9099 18.5498 15.5854 17.997 15.1094 17.6294C14.6333 17.2617 14.0431 17.1082 13.4637 17.2013L13.4767 17.199H4.40483L4.33767 17.6727C11.323 19.5837 15.912 23.7067 17.979 29.9227C17.3462 28.1452 16.3665 26.5347 15.106 25.2L15.1038 25.1977C13.8677 23.8305 12.3889 22.745 10.7553 22.0057L10.6687 21.9707L10.6643 21.9777ZM66.8612 32.2933H62.1812C62.4975 31.3942 63.2428 29.2164 64.4172 25.76L64.5168 25.431L64.8635 24.4837C65.0036 24.0948 65.1047 23.779 65.1668 23.5363L65.5742 25.5407L66.859 32.284L66.8612 32.2933Z" fill="black"/></svg>