<svg width="17" height="17" viewBox="0 0 17 17" fill="none" xmlns="http://www.w3.org/2000/svg">
<path d="M10.6504 4.51485L5.37462 9.79062C5.05172 10.1135 4.87032 10.5515 4.87032 11.0081C4.87032 11.4647 5.05172 11.9027 5.37462 12.2256C5.69752 12.5485 6.13546 12.7299 6.59211 12.7299C7.04875 12.7299 7.48669 12.5485 7.80959 12.2256L13.0854 6.94982C13.7311 6.30403 14.094 5.42814 14.094 4.51485C14.094 3.60156 13.7311 2.72568 13.0854 2.07989C12.4396 1.43409 11.5637 1.07129 10.6504 1.07129C9.73709 1.07129 8.86121 1.43409 8.21542 2.07989L2.93965 7.35565C1.97096 8.32434 1.42676 9.63817 1.42676 11.0081C1.42676 12.378 1.97096 13.6919 2.93965 14.6606C3.90834 15.6292 5.22217 16.1734 6.59211 16.1734C7.96204 16.1734 9.27587 15.6292 10.2446 14.6606L15.5203 9.38479" stroke="#5C5858" stroke-width="1.62331" stroke-linecap="round" stroke-linejoin="round"/>
</svg>
